<?xml version="1.0" encoding="UTF-8" standalone="no"?>
<!-- Generator: Adobe Illustrator 27.2.0, SVG Export Plug-In . SVG Version: 6.00 Build 0)  -->

<svg
   version="1.1"
   id="svg1"
   x="0px"
   y="0px"
   viewBox="0 0 595.3 841.9"
   style="enable-background:new 0 0 595.3 841.9;"
   xml:space="preserve"
   sodipodi:docname="рисунок.svg"
   inkscape:version="1.3.2 (091e20e, 2023-11-25, custom)"
   xmlns:inkscape="http://www.inkscape.org/namespaces/inkscape"
   xmlns:sodipodi="http://sodipodi.sourceforge.net/DTD/sodipodi-0.dtd"
   xmlns="http://www.w3.org/2000/svg"
   xmlns:svg="http://www.w3.org/2000/svg"
   xmlns:ns1="http://www.iki.fi/pav/software/textext/"><sodipodi:namedview
   bordercolor="#000000"
   borderopacity="0.25"
   id="namedview1"
   inkscape:current-layer="g7461"
   inkscape:cx="259.81222"
   inkscape:cy="133.3991"
   inkscape:deskcolor="#d1d1d1"
   inkscape:document-units="mm"
   inkscape:pagecheckerboard="0"
   inkscape:pageopacity="0.0"
   inkscape:showpageshadow="2"
   inkscape:window-height="1360"
   inkscape:window-maximized="0"
   inkscape:window-width="1718"
   inkscape:window-x="1713"
   inkscape:window-y="0"
   inkscape:zoom="3.0060172"
   pagecolor="#ffffff">
	</sodipodi:namedview><defs
   id="defs26" />
<style
   type="text/css"
   id="style1">
	.st0{fill:none;stroke:#B3B2B2;stroke-width:0.75;stroke-miterlimit:10;}
	.st1{fill:none;stroke:#4D4C4C;stroke-width:0.9373;stroke-linecap:round;stroke-linejoin:round;stroke-miterlimit:2.6243;}
	.st2{fill:none;stroke:#B3B2B2;stroke-width:0.6561;stroke-linecap:round;stroke-linejoin:round;stroke-miterlimit:2.6243;}
	.st3{fill:none;stroke:#000000;stroke-miterlimit:10;}
	.st4{fill:none;stroke:#000000;stroke-linecap:round;stroke-miterlimit:10;}
	.st5{fill:none;stroke:#000000;stroke-linecap:round;stroke-miterlimit:10;stroke-dasharray:14.6245,14.6245;}
</style>










<g
   transform="matrix(1.33333,0,0,1.33333,408.46615,105.65986)"
   ns1:version="1.10.2"
   ns1:texconverter="xelatex"
   ns1:pdfconverter="inkscape"
   ns1:text="$y(x)=x^2 + c$"
   ns1:preamble="C:\Users\max\AppData\Roaming\inkscape\extensions\inkscapeMadeEasy\basicLatexPackages.tex"
   ns1:scale="1.0"
   ns1:alignment="middle center"
   ns1:stroke-to-path="0"
   id="g7461"
   ns1:jacobian_sqrt="1.33333"><defs
   id="id-01775d1e-ac41-4573-860d-5395f50fae1d">
    <g
   id="id-47d06db8-4f8d-4255-89aa-05992779ce2a">
      <g
   id="id-f1cd3227-cf0f-472c-89ca-6bab13f3f098">
        <path
   d="m 4.890625,-4.03125 c 0,-0.171875 -0.140625,-0.265625 -0.296875,-0.265625 -0.09375,0 -0.25,0.0625 -0.34375,0.203125 -0.015625,0.0625 -0.109375,0.359375 -0.140625,0.546875 L 3.90625,-2.75 3.453125,-0.953125 c -0.03125,0.140625 -0.46875,0.84375 -1.125,0.84375 -0.5,0 -0.609375,-0.4375 -0.609375,-0.8125 C 1.71875,-1.375 1.890625,-2 2.21875,-2.875 2.375,-3.28125 2.421875,-3.390625 2.421875,-3.59375 c 0,-0.4375 -0.3125,-0.8125 -0.8125,-0.8125 -0.953125,0 -1.3125,1.453125 -1.3125,1.53125 0,0.109375 0.109375,0.109375 0.109375,0.109375 0.109375,0 0.109375,-0.03125 0.15625,-0.1875 0.28125,-0.9375 0.671875,-1.234375 1.015625,-1.234375 0.078125,0 0.25,0 0.25,0.3125 0,0.25 -0.109375,0.515625 -0.171875,0.703125 -0.40625,1.0625 -0.578125,1.625 -0.578125,2.09375 0,0.890625 0.625,1.1875 1.21875,1.1875 0.390625,0 0.71875,-0.171875 1,-0.453125 -0.125,0.515625 -0.25,1.015625 -0.640625,1.546875 -0.265625,0.328125 -0.640625,0.625 -1.09375,0.625 -0.140625,0 -0.59375,-0.03125 -0.765625,-0.421875 0.15625,0 0.296875,0 0.421875,-0.125 C 1.328125,1.203125 1.421875,1.0625 1.421875,0.875 1.421875,0.5625 1.15625,0.53125 1.0625,0.53125 0.828125,0.53125 0.5,0.6875 0.5,1.171875 c 0,0.5 0.4375,0.875 1.0625,0.875 1.015625,0 2.046875,-0.90625 2.328125,-2.03125 l 0.953125,-3.8125 C 4.890625,-3.9375 4.890625,-3.953125 4.890625,-4.03125 Z m 0,0"
   id="id-b06281df-dbf2-4cd2-94da-619a09159f3e" />
      </g>
      <g
   id="id-27b17430-2f60-41b4-81af-f51e1e4ca626">
        <path
   d="m 3.3125,2.375 c 0,-0.03125 -0.015625,-0.0625 -0.046875,-0.078125 -1.03125,-0.78125 -1.71875,-2.78125 -1.71875,-4.375 V -2.90625 c 0,-1.59375 0.6875,-3.59375 1.71875,-4.375 0.03125,-0.015625 0.046875,-0.046875 0.046875,-0.078125 0,-0.046875 -0.046875,-0.09375 -0.109375,-0.09375 -0.015625,0 -0.03125,0 -0.046875,0.015625 C 2.046875,-6.609375 1,-4.609375 1,-2.90625 v 0.828125 C 1,-0.375 2.046875,1.625 3.15625,2.453125 3.171875,2.46875 3.1875,2.46875 3.203125,2.46875 3.265625,2.46875 3.3125,2.421875 3.3125,2.375 Z m 0,0"
   id="id-d82f2671-ec06-4b75-8f7d-6108577ad452" />
      </g>
      <g
   id="id-e97101bc-e74d-4e2f-8cce-d339d616bce2">
        <path
   d="m 5.25,-3.75 c 0,-0.515625 -0.578125,-0.65625 -0.921875,-0.65625 -0.578125,0 -0.921875,0.53125 -1.046875,0.75 -0.25,-0.65625 -0.78125,-0.75 -1.078125,-0.75 -1.03125,0 -1.609375,1.28125 -1.609375,1.53125 0,0.109375 0.125,0.109375 0.125,0.109375 0.078125,0 0.109375,-0.03125 0.125,-0.109375 0.34375,-1.0625 1,-1.3125 1.34375,-1.3125 0.1875,0 0.53125,0.09375 0.53125,0.671875 0,0.3125 -0.171875,0.96875 -0.53125,2.375 -0.15625,0.609375 -0.515625,1.03125 -0.953125,1.03125 -0.0625,0 -0.28125,0 -0.5,-0.125 0.25,-0.0625 0.46875,-0.265625 0.46875,-0.546875 0,-0.265625 -0.21875,-0.34375 -0.359375,-0.34375 -0.3125,0 -0.546875,0.25 -0.546875,0.578125 0,0.453125 0.484375,0.65625 0.921875,0.65625 0.671875,0 1.03125,-0.703125 1.046875,-0.75 0.125,0.359375 0.484375,0.75 1.078125,0.75 1.03125,0 1.59375,-1.28125 1.59375,-1.53125 0,-0.109375 -0.078125,-0.109375 -0.109375,-0.109375 -0.09375,0 -0.109375,0.046875 -0.140625,0.109375 -0.328125,1.078125 -1,1.3125 -1.3125,1.3125 -0.390625,0 -0.546875,-0.3125 -0.546875,-0.65625 0,-0.21875 0.046875,-0.4375 0.15625,-0.875 l 0.34375,-1.375 C 3.390625,-3.265625 3.625,-4.1875 4.3125,-4.1875 c 0.046875,0 0.296875,0 0.5,0.125 C 4.53125,-4 4.34375,-3.765625 4.34375,-3.515625 c 0,0.15625 0.109375,0.34375 0.375,0.34375 C 4.9375,-3.171875 5.25,-3.34375 5.25,-3.75 Z m 0,0"
   id="id-dc4b3492-a3ab-437b-bf3e-c21e6be4c2d5" />
      </g>
      <g
   id="id-1dc832c5-2235-4d54-ab88-09e1d6096f1a">
        <path
   d="M 2.875,-2.078125 V -2.90625 c 0,-1.703125 -1.046875,-3.703125 -2.140625,-4.53125 -0.03125,-0.015625 -0.046875,-0.015625 -0.0625,-0.015625 -0.046875,0 -0.109375,0.046875 -0.109375,0.09375 0,0.03125 0.03125,0.0625 0.046875,0.078125 1.03125,0.78125 1.71875,2.78125 1.71875,4.375 v 0.828125 c 0,1.59375 -0.6875,3.59375 -1.71875,4.375 C 0.59375,2.3125 0.5625,2.34375 0.5625,2.375 c 0,0.046875 0.0625,0.09375 0.109375,0.09375 0.015625,0 0.03125,0 0.0625,-0.015625 C 1.828125,1.625 2.875,-0.375 2.875,-2.078125 Z m 0,0"
   id="id-42b52533-9d7d-495c-83c1-578c8a0aae7d" />
      </g>
      <g
   id="id-2e03e9d4-99b5-4e50-9596-dd2d532a06ee">
        <path
   d="M 7.203125,-3.453125 C 7.203125,-3.5625 7.109375,-3.65625 7,-3.65625 H 0.75 c -0.109375,0 -0.1875,0.09375 -0.1875,0.203125 0,0.109375 0.078125,0.1875 0.1875,0.1875 H 7 c 0.109375,0 0.203125,-0.078125 0.203125,-0.1875 z m 0,1.921875 c 0,-0.109375 -0.09375,-0.1875 -0.203125,-0.1875 H 0.75 c -0.109375,0 -0.1875,0.078125 -0.1875,0.1875 0,0.109375 0.078125,0.203125 0.1875,0.203125 H 7 c 0.109375,0 0.203125,-0.09375 0.203125,-0.203125 z m 0,0"
   id="id-c14f6877-f3bb-40f8-a912-81b710897718" />
      </g>
      <g
   id="id-70824eb8-f14f-485b-a2f5-ca1122a6b584">
        <path
   d="M 7.203125,-2.5 C 7.203125,-2.609375 7.109375,-2.6875 7,-2.6875 H 4.078125 v -2.921875 c 0,-0.109375 -0.09375,-0.203125 -0.203125,-0.203125 -0.109375,0 -0.203125,0.09375 -0.203125,0.203125 V -2.6875 H 0.75 c -0.109375,0 -0.1875,0.078125 -0.1875,0.1875 0,0.125 0.078125,0.203125 0.1875,0.203125 H 3.671875 V 0.625 c 0,0.109375 0.09375,0.203125 0.203125,0.203125 0.109375,0 0.203125,-0.09375 0.203125,-0.203125 V -2.296875 H 7 c 0.109375,0 0.203125,-0.078125 0.203125,-0.203125 z m 0,0"
   id="id-5fe227dd-d46d-4b51-ae3d-faa7d4b0f7a1" />
      </g>
      <g
   id="id-c54573b8-415a-4ec6-aa74-0dc9894b8b49">
        <path
   d="m 4.28125,-1.0625 c 0,-0.0625 -0.046875,-0.140625 -0.109375,-0.140625 -0.0625,0 -0.078125,0.03125 -0.140625,0.109375 -0.78125,0.984375 -1.875,0.984375 -1.984375,0.984375 -0.625,0 -0.90625,-0.484375 -0.90625,-1.09375 0,-0.40625 0.203125,-1.375 0.546875,-1.984375 0.3125,-0.578125 0.859375,-1 1.40625,-1 0.328125,0 0.71875,0.125 0.859375,0.40625 -0.171875,0 -0.296875,0 -0.4375,0.125 -0.171875,0.15625 -0.1875,0.328125 -0.1875,0.390625 0,0.25 0.1875,0.359375 0.375,0.359375 0.28125,0 0.546875,-0.25 0.546875,-0.640625 0,-0.484375 -0.46875,-0.859375 -1.171875,-0.859375 -1.34375,0 -2.671875,1.421875 -2.671875,2.828125 0,0.90625 0.578125,1.6875 1.625,1.6875 1.421875,0 2.25,-1.0625 2.25,-1.171875 z m 0,0"
   id="id-89bf140e-37eb-43d3-b70f-b7c565d09cca" />
      </g>
      <g
   id="id-eeb7b3a8-282f-4373-bcc4-e8a7f4258a1f">
        <path
   d="M 3.515625,-1.265625 H 3.28125 c -0.015625,0.15625 -0.09375,0.5625 -0.1875,0.625 C 3.046875,-0.59375 2.515625,-0.59375 2.40625,-0.59375 H 1.125 c 0.734375,-0.640625 0.984375,-0.84375 1.390625,-1.171875 0.515625,-0.40625 1,-0.84375 1,-1.5 0,-0.84375 -0.734375,-1.359375 -1.625,-1.359375 -0.859375,0 -1.453125,0.609375 -1.453125,1.25 0,0.34375 0.296875,0.390625 0.375,0.390625 0.15625,0 0.359375,-0.125 0.359375,-0.375 0,-0.125 -0.046875,-0.375 -0.40625,-0.375 C 0.984375,-4.21875 1.453125,-4.375 1.78125,-4.375 c 0.703125,0 1.0625,0.546875 1.0625,1.109375 0,0.609375 -0.4375,1.078125 -0.65625,1.328125 L 0.515625,-0.265625 C 0.4375,-0.203125 0.4375,-0.1875 0.4375,0 h 2.875 z m 0,0"
   id="id-4f54deaa-e4e8-4dc7-955d-8aa17201f1f1" />
      </g>
    </g>
  </defs>
  
  
  
  
  
  
  
<rect
   style="fill:none;stroke:#000000;stroke-width:1.00000249;stroke-linecap:round;paint-order:markers fill stroke;stroke-dasharray:none"
   id="rect26"
   width="127.51826"
   height="63.097435"
   x="-201.8575"
   y="-43.389286" /></g></svg>
